<mxfile host="app.diagrams.net" modified="2023-11-24T18:27:20.634Z" agent="Mozilla/5.0 (Windows NT 10.0; Win64; x64) AppleWebKit/537.36 (KHTML, like Gecko) Chrome/118.0.0.0 Safari/537.36 OPR/104.0.0.0 (Edition std-1)" etag="xqEtztfo0FeQfMFTHssF" version="22.1.4" type="device">
  <diagram name="Página-1" id="wAt2ujxtdTMOx57ZOebs">
    <mxGraphModel dx="1152" dy="1358" grid="1" gridSize="10" guides="1" tooltips="1" connect="1" arrows="1" fold="1" page="0" pageScale="1" pageWidth="827" pageHeight="1169" math="0" shadow="0">
      <root>
        <mxCell id="0" />
        <mxCell id="1" parent="0" />
        <mxCell id="TRJ7H8AJi0j6aFpi99H--3" value="Receita" style="whiteSpace=wrap;html=1;align=center;fontSize=16;" vertex="1" parent="1">
          <mxGeometry x="1040" y="-280" width="100" height="40" as="geometry" />
        </mxCell>
        <mxCell id="TRJ7H8AJi0j6aFpi99H--6" value="" style="endArrow=none;html=1;rounded=0;fontSize=12;startSize=8;endSize=8;curved=1;exitX=0.5;exitY=0;exitDx=0;exitDy=0;" edge="1" parent="1" source="TRJ7H8AJi0j6aFpi99H--3">
          <mxGeometry relative="1" as="geometry">
            <mxPoint x="790" y="-120" as="sourcePoint" />
            <mxPoint x="1090" y="-320" as="targetPoint" />
          </mxGeometry>
        </mxCell>
        <mxCell id="TRJ7H8AJi0j6aFpi99H--7" value="" style="endArrow=none;html=1;rounded=0;fontSize=12;startSize=8;endSize=8;curved=1;exitX=1;exitY=0.5;exitDx=0;exitDy=0;" edge="1" parent="1" source="TRJ7H8AJi0j6aFpi99H--3">
          <mxGeometry relative="1" as="geometry">
            <mxPoint x="790" y="-120" as="sourcePoint" />
            <mxPoint x="1180" y="-260" as="targetPoint" />
          </mxGeometry>
        </mxCell>
        <mxCell id="TRJ7H8AJi0j6aFpi99H--9" value="" style="endArrow=none;html=1;rounded=0;fontSize=12;startSize=8;endSize=8;curved=1;exitX=0;exitY=0.5;exitDx=0;exitDy=0;" edge="1" parent="1" source="TRJ7H8AJi0j6aFpi99H--3">
          <mxGeometry relative="1" as="geometry">
            <mxPoint x="790" y="-120" as="sourcePoint" />
            <mxPoint x="1000" y="-260" as="targetPoint" />
          </mxGeometry>
        </mxCell>
        <mxCell id="TRJ7H8AJi0j6aFpi99H--10" value="" style="endArrow=none;html=1;rounded=0;fontSize=12;startSize=8;endSize=8;curved=1;exitX=0.5;exitY=1;exitDx=0;exitDy=0;" edge="1" parent="1" source="TRJ7H8AJi0j6aFpi99H--3">
          <mxGeometry relative="1" as="geometry">
            <mxPoint x="790" y="-120" as="sourcePoint" />
            <mxPoint x="1090" y="-160" as="targetPoint" />
          </mxGeometry>
        </mxCell>
        <mxCell id="TRJ7H8AJi0j6aFpi99H--11" value="Contém" style="shape=rhombus;perimeter=rhombusPerimeter;whiteSpace=wrap;html=1;align=center;fontSize=16;" vertex="1" parent="1">
          <mxGeometry x="1030" y="-160" width="120" height="60" as="geometry" />
        </mxCell>
        <mxCell id="TRJ7H8AJi0j6aFpi99H--12" value="" style="endArrow=none;html=1;rounded=0;fontSize=12;startSize=8;endSize=8;curved=1;exitX=0.5;exitY=1;exitDx=0;exitDy=0;" edge="1" parent="1" source="TRJ7H8AJi0j6aFpi99H--11">
          <mxGeometry relative="1" as="geometry">
            <mxPoint x="790" y="-120" as="sourcePoint" />
            <mxPoint x="1090" y="-40" as="targetPoint" />
          </mxGeometry>
        </mxCell>
        <mxCell id="TRJ7H8AJi0j6aFpi99H--13" value="Ingrediente" style="whiteSpace=wrap;html=1;align=center;fontSize=16;" vertex="1" parent="1">
          <mxGeometry x="1040" y="-40" width="100" height="40" as="geometry" />
        </mxCell>
        <mxCell id="TRJ7H8AJi0j6aFpi99H--14" value="" style="endArrow=none;html=1;rounded=0;fontSize=12;startSize=8;endSize=8;curved=1;exitX=1;exitY=0.5;exitDx=0;exitDy=0;" edge="1" parent="1" source="TRJ7H8AJi0j6aFpi99H--13">
          <mxGeometry relative="1" as="geometry">
            <mxPoint x="790" y="-120" as="sourcePoint" />
            <mxPoint x="1180" y="-20" as="targetPoint" />
          </mxGeometry>
        </mxCell>
        <mxCell id="TRJ7H8AJi0j6aFpi99H--15" value="" style="endArrow=none;html=1;rounded=0;fontSize=12;startSize=8;endSize=8;curved=1;exitX=0;exitY=0.5;exitDx=0;exitDy=0;" edge="1" parent="1" source="TRJ7H8AJi0j6aFpi99H--13">
          <mxGeometry relative="1" as="geometry">
            <mxPoint x="790" y="-120" as="sourcePoint" />
            <mxPoint x="1000" y="-20" as="targetPoint" />
          </mxGeometry>
        </mxCell>
        <mxCell id="TRJ7H8AJi0j6aFpi99H--16" value="" style="endArrow=none;html=1;rounded=0;fontSize=12;startSize=8;endSize=8;curved=1;exitX=0.5;exitY=1;exitDx=0;exitDy=0;" edge="1" parent="1" source="TRJ7H8AJi0j6aFpi99H--13">
          <mxGeometry relative="1" as="geometry">
            <mxPoint x="790" y="-120" as="sourcePoint" />
            <mxPoint x="1090" y="40" as="targetPoint" />
          </mxGeometry>
        </mxCell>
        <mxCell id="TRJ7H8AJi0j6aFpi99H--17" value="" style="triangle;whiteSpace=wrap;html=1;fontSize=16;rotation=-90;" vertex="1" parent="1">
          <mxGeometry x="1070" y="35" width="40" height="50" as="geometry" />
        </mxCell>
        <mxCell id="TRJ7H8AJi0j6aFpi99H--18" value="Ingrediente&lt;br&gt;Simples" style="whiteSpace=wrap;html=1;align=center;fontSize=16;" vertex="1" parent="1">
          <mxGeometry x="900" y="160" width="100" height="40" as="geometry" />
        </mxCell>
        <mxCell id="TRJ7H8AJi0j6aFpi99H--19" value="Ingrediente&lt;br&gt;Composto" style="whiteSpace=wrap;html=1;align=center;fontSize=16;" vertex="1" parent="1">
          <mxGeometry x="1200" y="160" width="100" height="40" as="geometry" />
        </mxCell>
        <mxCell id="TRJ7H8AJi0j6aFpi99H--21" value="Compõe" style="shape=rhombus;perimeter=rhombusPerimeter;whiteSpace=wrap;html=1;align=center;fontSize=16;" vertex="1" parent="1">
          <mxGeometry x="1040" y="150" width="120" height="60" as="geometry" />
        </mxCell>
        <mxCell id="TRJ7H8AJi0j6aFpi99H--22" value="" style="endArrow=none;html=1;rounded=0;fontSize=12;startSize=8;endSize=8;curved=1;exitX=0.5;exitY=0;exitDx=0;exitDy=0;" edge="1" parent="1" source="TRJ7H8AJi0j6aFpi99H--18">
          <mxGeometry relative="1" as="geometry">
            <mxPoint x="790" y="-30" as="sourcePoint" />
            <mxPoint x="950" y="120" as="targetPoint" />
          </mxGeometry>
        </mxCell>
        <mxCell id="TRJ7H8AJi0j6aFpi99H--23" value="" style="endArrow=none;html=1;rounded=0;fontSize=12;startSize=8;endSize=8;curved=1;exitX=0.5;exitY=1;exitDx=0;exitDy=0;" edge="1" parent="1" source="TRJ7H8AJi0j6aFpi99H--18">
          <mxGeometry relative="1" as="geometry">
            <mxPoint x="790" y="70" as="sourcePoint" />
            <mxPoint x="950" y="240" as="targetPoint" />
          </mxGeometry>
        </mxCell>
        <mxCell id="TRJ7H8AJi0j6aFpi99H--25" value="" style="endArrow=none;html=1;rounded=0;fontSize=12;startSize=8;endSize=8;curved=1;entryX=0;entryY=0.25;entryDx=0;entryDy=0;" edge="1" parent="1" target="TRJ7H8AJi0j6aFpi99H--18">
          <mxGeometry relative="1" as="geometry">
            <mxPoint x="840" y="170" as="sourcePoint" />
            <mxPoint x="950" y="70" as="targetPoint" />
          </mxGeometry>
        </mxCell>
        <mxCell id="TRJ7H8AJi0j6aFpi99H--26" value="" style="endArrow=none;html=1;rounded=0;fontSize=12;startSize=8;endSize=8;curved=1;" edge="1" parent="1">
          <mxGeometry relative="1" as="geometry">
            <mxPoint x="840" y="120" as="sourcePoint" />
            <mxPoint x="840" y="170" as="targetPoint" />
          </mxGeometry>
        </mxCell>
        <mxCell id="TRJ7H8AJi0j6aFpi99H--27" value="" style="endArrow=none;html=1;rounded=0;fontSize=12;startSize=8;endSize=8;curved=1;" edge="1" parent="1">
          <mxGeometry relative="1" as="geometry">
            <mxPoint x="760" y="120" as="sourcePoint" />
            <mxPoint x="840" y="120" as="targetPoint" />
          </mxGeometry>
        </mxCell>
        <mxCell id="TRJ7H8AJi0j6aFpi99H--28" value="" style="endArrow=none;html=1;rounded=0;fontSize=12;startSize=8;endSize=8;curved=1;entryX=0;entryY=0.75;entryDx=0;entryDy=0;" edge="1" parent="1" target="TRJ7H8AJi0j6aFpi99H--18">
          <mxGeometry relative="1" as="geometry">
            <mxPoint x="840" y="190" as="sourcePoint" />
            <mxPoint x="950" y="70" as="targetPoint" />
          </mxGeometry>
        </mxCell>
        <mxCell id="TRJ7H8AJi0j6aFpi99H--29" value="" style="endArrow=none;html=1;rounded=0;fontSize=12;startSize=8;endSize=8;curved=1;" edge="1" parent="1">
          <mxGeometry relative="1" as="geometry">
            <mxPoint x="840" y="190" as="sourcePoint" />
            <mxPoint x="840" y="240" as="targetPoint" />
          </mxGeometry>
        </mxCell>
        <mxCell id="TRJ7H8AJi0j6aFpi99H--30" value="" style="endArrow=none;html=1;rounded=0;fontSize=12;startSize=8;endSize=8;curved=1;" edge="1" parent="1">
          <mxGeometry relative="1" as="geometry">
            <mxPoint x="760" y="240" as="sourcePoint" />
            <mxPoint x="840" y="240" as="targetPoint" />
          </mxGeometry>
        </mxCell>
        <mxCell id="TRJ7H8AJi0j6aFpi99H--31" value="Define" style="shape=rhombus;perimeter=rhombusPerimeter;whiteSpace=wrap;html=1;align=center;fontSize=16;" vertex="1" parent="1">
          <mxGeometry x="640" y="90" width="120" height="60" as="geometry" />
        </mxCell>
        <mxCell id="TRJ7H8AJi0j6aFpi99H--32" value="Constitui" style="shape=rhombus;perimeter=rhombusPerimeter;whiteSpace=wrap;html=1;align=center;fontSize=16;" vertex="1" parent="1">
          <mxGeometry x="640" y="210" width="120" height="60" as="geometry" />
        </mxCell>
        <mxCell id="TRJ7H8AJi0j6aFpi99H--33" value="" style="endArrow=none;html=1;rounded=0;fontSize=12;startSize=8;endSize=8;curved=1;exitX=0;exitY=0.5;exitDx=0;exitDy=0;" edge="1" parent="1" source="TRJ7H8AJi0j6aFpi99H--31">
          <mxGeometry relative="1" as="geometry">
            <mxPoint x="790" y="70" as="sourcePoint" />
            <mxPoint x="600" y="120" as="targetPoint" />
          </mxGeometry>
        </mxCell>
        <mxCell id="TRJ7H8AJi0j6aFpi99H--34" value="" style="endArrow=none;html=1;rounded=0;fontSize=12;startSize=8;endSize=8;curved=1;exitX=0;exitY=0.5;exitDx=0;exitDy=0;" edge="1" parent="1" source="TRJ7H8AJi0j6aFpi99H--32">
          <mxGeometry relative="1" as="geometry">
            <mxPoint x="790" y="70" as="sourcePoint" />
            <mxPoint x="600" y="240" as="targetPoint" />
          </mxGeometry>
        </mxCell>
        <mxCell id="TRJ7H8AJi0j6aFpi99H--35" value="Macronutriente" style="whiteSpace=wrap;html=1;align=center;fontSize=16;" vertex="1" parent="1">
          <mxGeometry x="490" y="100" width="110" height="40" as="geometry" />
        </mxCell>
        <mxCell id="TRJ7H8AJi0j6aFpi99H--36" value="Composto&lt;br&gt;Químico&amp;nbsp;" style="whiteSpace=wrap;html=1;align=center;fontSize=16;" vertex="1" parent="1">
          <mxGeometry x="490" y="220" width="110" height="40" as="geometry" />
        </mxCell>
        <mxCell id="TRJ7H8AJi0j6aFpi99H--37" value="" style="endArrow=none;html=1;rounded=0;fontSize=12;startSize=8;endSize=8;curved=1;exitX=0.5;exitY=0;exitDx=0;exitDy=0;" edge="1" parent="1" source="TRJ7H8AJi0j6aFpi99H--31">
          <mxGeometry relative="1" as="geometry">
            <mxPoint x="790" y="70" as="sourcePoint" />
            <mxPoint x="700" y="40" as="targetPoint" />
          </mxGeometry>
        </mxCell>
        <mxCell id="TRJ7H8AJi0j6aFpi99H--38" value="" style="endArrow=none;html=1;rounded=0;fontSize=12;startSize=8;endSize=8;curved=1;exitX=0.402;exitY=-0.023;exitDx=0;exitDy=0;entryX=0.5;entryY=1;entryDx=0;entryDy=0;exitPerimeter=0;" edge="1" parent="1" source="TRJ7H8AJi0j6aFpi99H--35" target="TRJ7H8AJi0j6aFpi99H--49">
          <mxGeometry relative="1" as="geometry">
            <mxPoint x="790" y="70" as="sourcePoint" />
            <mxPoint x="550" y="40" as="targetPoint" />
          </mxGeometry>
        </mxCell>
        <mxCell id="TRJ7H8AJi0j6aFpi99H--39" value="" style="endArrow=none;html=1;rounded=0;fontSize=12;startSize=8;endSize=8;curved=1;exitX=0.5;exitY=1;exitDx=0;exitDy=0;" edge="1" parent="1" source="TRJ7H8AJi0j6aFpi99H--32">
          <mxGeometry relative="1" as="geometry">
            <mxPoint x="790" y="260" as="sourcePoint" />
            <mxPoint x="700" y="320" as="targetPoint" />
          </mxGeometry>
        </mxCell>
        <mxCell id="TRJ7H8AJi0j6aFpi99H--40" value="" style="endArrow=none;html=1;rounded=0;fontSize=12;startSize=8;endSize=8;curved=1;exitX=0.5;exitY=1;exitDx=0;exitDy=0;entryX=0.5;entryY=0;entryDx=0;entryDy=0;" edge="1" parent="1" source="TRJ7H8AJi0j6aFpi99H--36" target="TRJ7H8AJi0j6aFpi99H--48">
          <mxGeometry relative="1" as="geometry">
            <mxPoint x="790" y="260" as="sourcePoint" />
            <mxPoint x="550" y="320" as="targetPoint" />
          </mxGeometry>
        </mxCell>
        <mxCell id="TRJ7H8AJi0j6aFpi99H--41" value="" style="endArrow=none;html=1;rounded=0;fontSize=12;startSize=8;endSize=8;curved=1;exitX=-0.004;exitY=-0.021;exitDx=0;exitDy=0;exitPerimeter=0;" edge="1" parent="1" source="TRJ7H8AJi0j6aFpi99H--17" target="TRJ7H8AJi0j6aFpi99H--18">
          <mxGeometry relative="1" as="geometry">
            <mxPoint x="790" y="260" as="sourcePoint" />
            <mxPoint x="950" y="260" as="targetPoint" />
          </mxGeometry>
        </mxCell>
        <mxCell id="TRJ7H8AJi0j6aFpi99H--42" value="" style="endArrow=none;html=1;rounded=0;fontSize=12;startSize=8;endSize=8;curved=1;exitX=0.035;exitY=0.985;exitDx=0;exitDy=0;exitPerimeter=0;entryX=0.25;entryY=0;entryDx=0;entryDy=0;" edge="1" parent="1" source="TRJ7H8AJi0j6aFpi99H--17" target="TRJ7H8AJi0j6aFpi99H--19">
          <mxGeometry relative="1" as="geometry">
            <mxPoint x="790" y="260" as="sourcePoint" />
            <mxPoint x="950" y="260" as="targetPoint" />
          </mxGeometry>
        </mxCell>
        <mxCell id="TRJ7H8AJi0j6aFpi99H--43" value="" style="endArrow=none;html=1;rounded=0;fontSize=12;startSize=8;endSize=8;curved=1;exitX=1;exitY=0.5;exitDx=0;exitDy=0;entryX=0;entryY=0.5;entryDx=0;entryDy=0;" edge="1" parent="1" source="TRJ7H8AJi0j6aFpi99H--18" target="TRJ7H8AJi0j6aFpi99H--21">
          <mxGeometry relative="1" as="geometry">
            <mxPoint x="790" y="260" as="sourcePoint" />
            <mxPoint x="950" y="260" as="targetPoint" />
          </mxGeometry>
        </mxCell>
        <mxCell id="TRJ7H8AJi0j6aFpi99H--44" value="" style="endArrow=none;html=1;rounded=0;fontSize=12;startSize=8;endSize=8;curved=1;exitX=1;exitY=0.5;exitDx=0;exitDy=0;entryX=0;entryY=0.5;entryDx=0;entryDy=0;" edge="1" parent="1" source="TRJ7H8AJi0j6aFpi99H--21" target="TRJ7H8AJi0j6aFpi99H--19">
          <mxGeometry relative="1" as="geometry">
            <mxPoint x="790" y="260" as="sourcePoint" />
            <mxPoint x="950" y="260" as="targetPoint" />
          </mxGeometry>
        </mxCell>
        <mxCell id="TRJ7H8AJi0j6aFpi99H--45" value="Grupo" style="ellipse;whiteSpace=wrap;html=1;align=center;fontSize=16;" vertex="1" parent="1">
          <mxGeometry x="900" y="80" width="100" height="40" as="geometry" />
        </mxCell>
        <mxCell id="TRJ7H8AJi0j6aFpi99H--46" value="Subgrupo" style="ellipse;whiteSpace=wrap;html=1;align=center;fontSize=16;" vertex="1" parent="1">
          <mxGeometry x="900" y="240" width="100" height="40" as="geometry" />
        </mxCell>
        <mxCell id="TRJ7H8AJi0j6aFpi99H--47" value="Quantidade por g" style="ellipse;whiteSpace=wrap;html=1;align=center;fontSize=16;" vertex="1" parent="1">
          <mxGeometry x="650" y="320" width="110" height="50" as="geometry" />
        </mxCell>
        <mxCell id="TRJ7H8AJi0j6aFpi99H--48" value="&lt;u&gt;Nome&lt;/u&gt;" style="ellipse;whiteSpace=wrap;html=1;align=center;fontSize=16;" vertex="1" parent="1">
          <mxGeometry x="490" y="320" width="110" height="50" as="geometry" />
        </mxCell>
        <mxCell id="TRJ7H8AJi0j6aFpi99H--49" value="&lt;u&gt;Nome&lt;/u&gt;" style="ellipse;whiteSpace=wrap;html=1;align=center;fontSize=16;" vertex="1" parent="1">
          <mxGeometry x="480" y="-10" width="110" height="50" as="geometry" />
        </mxCell>
        <mxCell id="TRJ7H8AJi0j6aFpi99H--50" value="Quantidade por g" style="ellipse;whiteSpace=wrap;html=1;align=center;fontSize=16;" vertex="1" parent="1">
          <mxGeometry x="650" y="-10" width="110" height="50" as="geometry" />
        </mxCell>
        <mxCell id="TRJ7H8AJi0j6aFpi99H--51" value="Nome" style="ellipse;whiteSpace=wrap;html=1;align=center;fontSize=16;" vertex="1" parent="1">
          <mxGeometry x="900" y="-40" width="100" height="40" as="geometry" />
        </mxCell>
        <mxCell id="TRJ7H8AJi0j6aFpi99H--52" value="&lt;u&gt;ID&lt;/u&gt;" style="ellipse;whiteSpace=wrap;html=1;align=center;fontSize=16;" vertex="1" parent="1">
          <mxGeometry x="1180" y="-40" width="100" height="40" as="geometry" />
        </mxCell>
        <mxCell id="TRJ7H8AJi0j6aFpi99H--53" value="Região" style="ellipse;whiteSpace=wrap;html=1;align=center;fontSize=16;" vertex="1" parent="1">
          <mxGeometry x="1180" y="-280" width="100" height="40" as="geometry" />
        </mxCell>
        <mxCell id="TRJ7H8AJi0j6aFpi99H--54" value="Nome" style="ellipse;whiteSpace=wrap;html=1;align=center;fontSize=16;" vertex="1" parent="1">
          <mxGeometry x="900" y="-280" width="100" height="40" as="geometry" />
        </mxCell>
        <mxCell id="TRJ7H8AJi0j6aFpi99H--55" value="&lt;u&gt;ID&lt;/u&gt;" style="ellipse;whiteSpace=wrap;html=1;align=center;fontSize=16;" vertex="1" parent="1">
          <mxGeometry x="1040" y="-360" width="100" height="40" as="geometry" />
        </mxCell>
        <mxCell id="TRJ7H8AJi0j6aFpi99H--56" value="n" style="text;strokeColor=none;fillColor=none;spacingLeft=4;spacingRight=4;overflow=hidden;rotatable=0;points=[[0,0.5],[1,0.5]];portConstraint=eastwest;fontSize=16;whiteSpace=wrap;html=1;" vertex="1" parent="1">
          <mxGeometry x="1090" y="-250" width="40" height="30" as="geometry" />
        </mxCell>
        <mxCell id="TRJ7H8AJi0j6aFpi99H--57" value="n" style="text;strokeColor=none;fillColor=none;spacingLeft=4;spacingRight=4;overflow=hidden;rotatable=0;points=[[0,0.5],[1,0.5]];portConstraint=eastwest;fontSize=16;whiteSpace=wrap;html=1;" vertex="1" parent="1">
          <mxGeometry x="1090" y="-110" width="40" height="30" as="geometry" />
        </mxCell>
        <mxCell id="TRJ7H8AJi0j6aFpi99H--58" value="n" style="text;strokeColor=none;fillColor=none;spacingLeft=4;spacingRight=4;overflow=hidden;rotatable=0;points=[[0,0.5],[1,0.5]];portConstraint=eastwest;fontSize=16;whiteSpace=wrap;html=1;" vertex="1" parent="1">
          <mxGeometry x="1000" y="150" width="40" height="30" as="geometry" />
        </mxCell>
        <mxCell id="TRJ7H8AJi0j6aFpi99H--59" value="n" style="text;strokeColor=none;fillColor=none;spacingLeft=4;spacingRight=4;overflow=hidden;rotatable=0;points=[[0,0.5],[1,0.5]];portConstraint=eastwest;fontSize=16;whiteSpace=wrap;html=1;" vertex="1" parent="1">
          <mxGeometry x="880" y="140" width="40" height="30" as="geometry" />
        </mxCell>
        <mxCell id="TRJ7H8AJi0j6aFpi99H--60" value="n" style="text;strokeColor=none;fillColor=none;spacingLeft=4;spacingRight=4;overflow=hidden;rotatable=0;points=[[0,0.5],[1,0.5]];portConstraint=eastwest;fontSize=16;whiteSpace=wrap;html=1;" vertex="1" parent="1">
          <mxGeometry x="880" y="180" width="40" height="30" as="geometry" />
        </mxCell>
        <mxCell id="TRJ7H8AJi0j6aFpi99H--61" value="n" style="text;strokeColor=none;fillColor=none;spacingLeft=4;spacingRight=4;overflow=hidden;rotatable=0;points=[[0,0.5],[1,0.5]];portConstraint=eastwest;fontSize=16;whiteSpace=wrap;html=1;" vertex="1" parent="1">
          <mxGeometry x="1180" y="150" width="40" height="30" as="geometry" />
        </mxCell>
        <mxCell id="TRJ7H8AJi0j6aFpi99H--62" value="n" style="text;strokeColor=none;fillColor=none;spacingLeft=4;spacingRight=4;overflow=hidden;rotatable=0;points=[[0,0.5],[1,0.5]];portConstraint=eastwest;fontSize=16;whiteSpace=wrap;html=1;" vertex="1" parent="1">
          <mxGeometry x="600" y="90" width="40" height="30" as="geometry" />
        </mxCell>
        <mxCell id="TRJ7H8AJi0j6aFpi99H--63" value="n" style="text;strokeColor=none;fillColor=none;spacingLeft=4;spacingRight=4;overflow=hidden;rotatable=0;points=[[0,0.5],[1,0.5]];portConstraint=eastwest;fontSize=16;whiteSpace=wrap;html=1;" vertex="1" parent="1">
          <mxGeometry x="600" y="210" width="40" height="30" as="geometry" />
        </mxCell>
        <mxCell id="TRJ7H8AJi0j6aFpi99H--64" value="xt" style="text;strokeColor=none;fillColor=none;spacingLeft=4;spacingRight=4;overflow=hidden;rotatable=0;points=[[0,0.5],[1,0.5]];portConstraint=eastwest;fontSize=16;whiteSpace=wrap;html=1;" vertex="1" parent="1">
          <mxGeometry x="1100" y="30" width="40" height="30" as="geometry" />
        </mxCell>
        <mxCell id="TRJ7H8AJi0j6aFpi99H--66" value="" style="endArrow=none;html=1;rounded=0;fontSize=12;startSize=8;endSize=8;curved=1;exitX=1;exitY=0.5;exitDx=0;exitDy=0;" edge="1" parent="1" source="TRJ7H8AJi0j6aFpi99H--11">
          <mxGeometry relative="1" as="geometry">
            <mxPoint x="890" y="20" as="sourcePoint" />
            <mxPoint x="1220" y="-130" as="targetPoint" />
          </mxGeometry>
        </mxCell>
        <mxCell id="TRJ7H8AJi0j6aFpi99H--67" value="Quantidade" style="ellipse;whiteSpace=wrap;html=1;align=center;fontSize=16;" vertex="1" parent="1">
          <mxGeometry x="1220" y="-150" width="100" height="40" as="geometry" />
        </mxCell>
      </root>
    </mxGraphModel>
  </diagram>
</mxfile>
